<mxfile host="Electron" agent="Mozilla/5.0 (X11; Linux x86_64) AppleWebKit/537.36 (KHTML, like Gecko) draw.io/24.7.5 Chrome/126.0.6478.183 Electron/31.3.0 Safari/537.36" version="24.7.5">
  <diagram name="Page-1" id="b5b7bab2-c9e2-2cf4-8b2a-24fd1a2a6d21">
    <mxGraphModel dx="2074" dy="1222" grid="1" gridSize="10" guides="1" tooltips="1" connect="1" arrows="1" fold="1" page="1" pageScale="1" pageWidth="827" pageHeight="1169" background="none" math="0" shadow="0">
      <root>
        <mxCell id="0" />
        <mxCell id="1" parent="0" />
        <mxCell id="jkmXBFvczhSIajxpXbJP-2" value="" style="shape=umlLifeline;perimeter=lifelinePerimeter;whiteSpace=wrap;html=1;container=1;dropTarget=0;collapsible=0;recursiveResize=0;outlineConnect=0;portConstraint=eastwest;newEdgeStyle={&quot;curved&quot;:0,&quot;rounded&quot;:0};participant=umlActor;" parent="1" vertex="1">
          <mxGeometry x="30" y="80" width="20" height="880" as="geometry" />
        </mxCell>
        <mxCell id="jkmXBFvczhSIajxpXbJP-3" value="workflows frontend" style="shape=umlLifeline;perimeter=lifelinePerimeter;whiteSpace=wrap;html=1;container=1;dropTarget=0;collapsible=0;recursiveResize=0;outlineConnect=0;portConstraint=eastwest;newEdgeStyle={&quot;curved&quot;:0,&quot;rounded&quot;:0};" parent="1" vertex="1">
          <mxGeometry x="150" y="80" width="100" height="880" as="geometry" />
        </mxCell>
        <mxCell id="jkmXBFvczhSIajxpXbJP-7" value="" style="html=1;points=[[0,0,0,0,5],[0,1,0,0,-5],[1,0,0,0,5],[1,1,0,0,-5]];perimeter=orthogonalPerimeter;outlineConnect=0;targetShapes=umlLifeline;portConstraint=eastwest;newEdgeStyle={&quot;curved&quot;:0,&quot;rounded&quot;:0};" parent="jkmXBFvczhSIajxpXbJP-3" vertex="1">
          <mxGeometry x="45" y="60" width="10" height="190" as="geometry" />
        </mxCell>
        <mxCell id="jkmXBFvczhSIajxpXbJP-18" value="" style="html=1;points=[[0,0,0,0,5],[0,1,0,0,-5],[1,0,0,0,5],[1,1,0,0,-5]];perimeter=orthogonalPerimeter;outlineConnect=0;targetShapes=umlLifeline;portConstraint=eastwest;newEdgeStyle={&quot;curved&quot;:0,&quot;rounded&quot;:0};" parent="jkmXBFvczhSIajxpXbJP-3" vertex="1">
          <mxGeometry x="50" y="190" width="10" height="40" as="geometry" />
        </mxCell>
        <mxCell id="jkmXBFvczhSIajxpXbJP-19" value="populate cells list" style="html=1;align=left;spacingLeft=2;endArrow=block;rounded=0;edgeStyle=orthogonalEdgeStyle;curved=0;rounded=0;" parent="jkmXBFvczhSIajxpXbJP-3" edge="1">
          <mxGeometry relative="1" as="geometry">
            <mxPoint x="55" y="169.9999999999999" as="sourcePoint" />
            <Array as="points">
              <mxPoint x="80" y="170" />
              <mxPoint x="80" y="210" />
            </Array>
            <mxPoint x="60" y="209.9999999999999" as="targetPoint" />
          </mxGeometry>
        </mxCell>
        <mxCell id="jkmXBFvczhSIajxpXbJP-22" value="" style="html=1;points=[[0,0,0,0,5],[0,1,0,0,-5],[1,0,0,0,5],[1,1,0,0,-5]];perimeter=orthogonalPerimeter;outlineConnect=0;targetShapes=umlLifeline;portConstraint=eastwest;newEdgeStyle={&quot;curved&quot;:0,&quot;rounded&quot;:0};" parent="jkmXBFvczhSIajxpXbJP-3" vertex="1">
          <mxGeometry x="45" y="370" width="10" height="470" as="geometry" />
        </mxCell>
        <mxCell id="jkmXBFvczhSIajxpXbJP-25" value="" style="html=1;points=[[0,0,0,0,5],[0,1,0,0,-5],[1,0,0,0,5],[1,1,0,0,-5]];perimeter=orthogonalPerimeter;outlineConnect=0;targetShapes=umlLifeline;portConstraint=eastwest;newEdgeStyle={&quot;curved&quot;:0,&quot;rounded&quot;:0};" parent="jkmXBFvczhSIajxpXbJP-3" vertex="1">
          <mxGeometry x="45" y="270" width="10" height="80" as="geometry" />
        </mxCell>
        <mxCell id="jkmXBFvczhSIajxpXbJP-23" value="click run workflow" style="html=1;verticalAlign=bottom;endArrow=block;curved=0;rounded=0;entryX=0;entryY=0;entryDx=0;entryDy=5;" parent="jkmXBFvczhSIajxpXbJP-3" target="jkmXBFvczhSIajxpXbJP-22" edge="1">
          <mxGeometry relative="1" as="geometry">
            <mxPoint x="-110.33333333333348" y="375.0000000000007" as="sourcePoint" />
          </mxGeometry>
        </mxCell>
        <mxCell id="jkmXBFvczhSIajxpXbJP-26" value="compose workflow" style="html=1;verticalAlign=bottom;endArrow=block;curved=0;rounded=0;entryX=0;entryY=0;entryDx=0;entryDy=5;" parent="jkmXBFvczhSIajxpXbJP-3" target="jkmXBFvczhSIajxpXbJP-25" edge="1">
          <mxGeometry relative="1" as="geometry">
            <mxPoint x="-110.33333333333348" y="275" as="sourcePoint" />
          </mxGeometry>
        </mxCell>
        <mxCell id="jkmXBFvczhSIajxpXbJP-27" value="return" style="html=1;verticalAlign=bottom;endArrow=open;dashed=1;endSize=8;curved=0;rounded=0;exitX=0;exitY=1;exitDx=0;exitDy=-5;" parent="jkmXBFvczhSIajxpXbJP-3" source="jkmXBFvczhSIajxpXbJP-25" edge="1">
          <mxGeometry relative="1" as="geometry">
            <mxPoint x="-110.33333333333348" y="345" as="targetPoint" />
          </mxGeometry>
        </mxCell>
        <mxCell id="jkmXBFvczhSIajxpXbJP-4" value="catalogue" style="shape=umlLifeline;perimeter=lifelinePerimeter;whiteSpace=wrap;html=1;container=1;dropTarget=0;collapsible=0;recursiveResize=0;outlineConnect=0;portConstraint=eastwest;newEdgeStyle={&quot;curved&quot;:0,&quot;rounded&quot;:0};" parent="1" vertex="1">
          <mxGeometry x="350" y="80" width="100" height="880" as="geometry" />
        </mxCell>
        <mxCell id="jkmXBFvczhSIajxpXbJP-10" value="" style="html=1;points=[[0,0,0,0,5],[0,1,0,0,-5],[1,0,0,0,5],[1,1,0,0,-5]];perimeter=orthogonalPerimeter;outlineConnect=0;targetShapes=umlLifeline;portConstraint=eastwest;newEdgeStyle={&quot;curved&quot;:0,&quot;rounded&quot;:0};" parent="jkmXBFvczhSIajxpXbJP-4" vertex="1">
          <mxGeometry x="45" y="70" width="10" height="70" as="geometry" />
        </mxCell>
        <mxCell id="jkmXBFvczhSIajxpXbJP-52" value="" style="html=1;points=[[0,0,0,0,5],[0,1,0,0,-5],[1,0,0,0,5],[1,1,0,0,-5]];perimeter=orthogonalPerimeter;outlineConnect=0;targetShapes=umlLifeline;portConstraint=eastwest;newEdgeStyle={&quot;curved&quot;:0,&quot;rounded&quot;:0};" parent="jkmXBFvczhSIajxpXbJP-4" vertex="1">
          <mxGeometry x="45" y="690" width="10" height="120" as="geometry" />
        </mxCell>
        <mxCell id="jkmXBFvczhSIajxpXbJP-5" value="workflows backend" style="shape=umlLifeline;perimeter=lifelinePerimeter;whiteSpace=wrap;html=1;container=1;dropTarget=0;collapsible=0;recursiveResize=0;outlineConnect=0;portConstraint=eastwest;newEdgeStyle={&quot;curved&quot;:0,&quot;rounded&quot;:0};" parent="1" vertex="1">
          <mxGeometry x="470" y="80" width="100" height="880" as="geometry" />
        </mxCell>
        <mxCell id="jkmXBFvczhSIajxpXbJP-31" value="" style="html=1;points=[[0,0,0,0,5],[0,1,0,0,-5],[1,0,0,0,5],[1,1,0,0,-5]];perimeter=orthogonalPerimeter;outlineConnect=0;targetShapes=umlLifeline;portConstraint=eastwest;newEdgeStyle={&quot;curved&quot;:0,&quot;rounded&quot;:0};" parent="jkmXBFvczhSIajxpXbJP-5" vertex="1">
          <mxGeometry x="45" y="380" width="10" height="270" as="geometry" />
        </mxCell>
        <mxCell id="jkmXBFvczhSIajxpXbJP-63" value="" style="html=1;points=[[0,0,0,0,5],[0,1,0,0,-5],[1,0,0,0,5],[1,1,0,0,-5]];perimeter=orthogonalPerimeter;outlineConnect=0;targetShapes=umlLifeline;portConstraint=eastwest;newEdgeStyle={&quot;curved&quot;:0,&quot;rounded&quot;:0};" parent="jkmXBFvczhSIajxpXbJP-5" vertex="1">
          <mxGeometry x="50" y="480" width="10" height="40" as="geometry" />
        </mxCell>
        <mxCell id="jkmXBFvczhSIajxpXbJP-64" value="get wf engine URL&lt;div&gt;from configuration&lt;/div&gt;" style="html=1;align=left;spacingLeft=2;endArrow=block;rounded=0;edgeStyle=orthogonalEdgeStyle;curved=0;rounded=0;" parent="jkmXBFvczhSIajxpXbJP-5" target="jkmXBFvczhSIajxpXbJP-63" edge="1">
          <mxGeometry relative="1" as="geometry">
            <mxPoint x="55" y="460" as="sourcePoint" />
            <Array as="points">
              <mxPoint x="85" y="490" />
            </Array>
          </mxGeometry>
        </mxCell>
        <mxCell id="jkmXBFvczhSIajxpXbJP-65" value="" style="html=1;points=[[0,0,0,0,5],[0,1,0,0,-5],[1,0,0,0,5],[1,1,0,0,-5]];perimeter=orthogonalPerimeter;outlineConnect=0;targetShapes=umlLifeline;portConstraint=eastwest;newEdgeStyle={&quot;curved&quot;:0,&quot;rounded&quot;:0};" parent="jkmXBFvczhSIajxpXbJP-5" vertex="1">
          <mxGeometry x="50" y="410" width="10" height="40" as="geometry" />
        </mxCell>
        <mxCell id="jkmXBFvczhSIajxpXbJP-66" value="naavrewf2 to argoyaml" style="html=1;align=left;spacingLeft=2;endArrow=block;rounded=0;edgeStyle=orthogonalEdgeStyle;curved=0;rounded=0;" parent="jkmXBFvczhSIajxpXbJP-5" target="jkmXBFvczhSIajxpXbJP-65" edge="1">
          <mxGeometry relative="1" as="geometry">
            <mxPoint x="55" y="390" as="sourcePoint" />
            <Array as="points">
              <mxPoint x="85" y="420" />
            </Array>
          </mxGeometry>
        </mxCell>
        <mxCell id="jkmXBFvczhSIajxpXbJP-6" value="workflow engine&amp;nbsp;" style="shape=umlLifeline;perimeter=lifelinePerimeter;whiteSpace=wrap;html=1;container=1;dropTarget=0;collapsible=0;recursiveResize=0;outlineConnect=0;portConstraint=eastwest;newEdgeStyle={&quot;curved&quot;:0,&quot;rounded&quot;:0};rotation=0;" parent="1" vertex="1">
          <mxGeometry x="670" y="80" width="100" height="880" as="geometry" />
        </mxCell>
        <mxCell id="jkmXBFvczhSIajxpXbJP-36" value="" style="html=1;points=[[0,0,0,0,5],[0,1,0,0,-5],[1,0,0,0,5],[1,1,0,0,-5]];perimeter=orthogonalPerimeter;outlineConnect=0;targetShapes=umlLifeline;portConstraint=eastwest;newEdgeStyle={&quot;curved&quot;:0,&quot;rounded&quot;:0};" parent="jkmXBFvczhSIajxpXbJP-6" vertex="1">
          <mxGeometry x="45" y="550" width="10" height="80" as="geometry" />
        </mxCell>
        <mxCell id="jkmXBFvczhSIajxpXbJP-8" value="open experiment manager" style="html=1;verticalAlign=bottom;endArrow=block;curved=0;rounded=0;entryX=0;entryY=0;entryDx=0;entryDy=5;" parent="1" source="jkmXBFvczhSIajxpXbJP-2" target="jkmXBFvczhSIajxpXbJP-7" edge="1">
          <mxGeometry relative="1" as="geometry">
            <mxPoint x="110" y="175" as="sourcePoint" />
          </mxGeometry>
        </mxCell>
        <mxCell id="jkmXBFvczhSIajxpXbJP-9" value="return" style="html=1;verticalAlign=bottom;endArrow=open;dashed=1;endSize=8;curved=0;rounded=0;exitX=0;exitY=1;exitDx=0;exitDy=-5;" parent="1" source="jkmXBFvczhSIajxpXbJP-7" target="jkmXBFvczhSIajxpXbJP-2" edge="1">
          <mxGeometry relative="1" as="geometry">
            <mxPoint x="110" y="245" as="targetPoint" />
          </mxGeometry>
        </mxCell>
        <mxCell id="jkmXBFvczhSIajxpXbJP-11" value="GET /workflow_cells?page=" style="html=1;verticalAlign=bottom;endArrow=block;curved=0;rounded=0;entryX=0;entryY=0;entryDx=0;entryDy=5;" parent="1" source="jkmXBFvczhSIajxpXbJP-7" target="jkmXBFvczhSIajxpXbJP-10" edge="1">
          <mxGeometry relative="1" as="geometry">
            <mxPoint x="240" y="195" as="sourcePoint" />
          </mxGeometry>
        </mxCell>
        <mxCell id="jkmXBFvczhSIajxpXbJP-12" value="return" style="html=1;verticalAlign=bottom;endArrow=open;dashed=1;endSize=8;curved=0;rounded=0;exitX=0;exitY=1;exitDx=0;exitDy=-5;" parent="1" source="jkmXBFvczhSIajxpXbJP-10" target="jkmXBFvczhSIajxpXbJP-7" edge="1">
          <mxGeometry relative="1" as="geometry">
            <mxPoint x="250" y="265" as="targetPoint" />
          </mxGeometry>
        </mxCell>
        <mxCell id="jkmXBFvczhSIajxpXbJP-67" value="&lt;span style=&quot;text-align: left;&quot;&gt;{cells: [{…}, {…}]}&lt;/span&gt;" style="edgeLabel;html=1;align=center;verticalAlign=top;resizable=0;points=[];rotation=0;labelBackgroundColor=#FFF2CC;fontFamily=Lucida Console;" parent="jkmXBFvczhSIajxpXbJP-12" vertex="1" connectable="0">
          <mxGeometry relative="1" as="geometry">
            <mxPoint as="offset" />
          </mxGeometry>
        </mxCell>
        <mxCell id="jkmXBFvczhSIajxpXbJP-39" value="config:&amp;nbsp;&lt;span style=&quot;background-color: initial;&quot;&gt;list&lt;/span&gt;&lt;div&gt;&lt;span style=&quot;background-color: initial;&quot;&gt;of wf engines&lt;/span&gt;&lt;/div&gt;&lt;div&gt;&lt;span style=&quot;background-color: initial;&quot;&gt;for each VL&lt;/span&gt;&lt;/div&gt;" style="shape=note;whiteSpace=wrap;html=1;backgroundOutline=1;darkOpacity=0.05;align=left;fillColor=#fff2cc;strokeColor=#d6b656;" parent="1" vertex="1">
          <mxGeometry x="550" y="100" width="110" height="50" as="geometry" />
        </mxCell>
        <mxCell id="jkmXBFvczhSIajxpXbJP-32" value="POST /submit/" style="html=1;verticalAlign=bottom;endArrow=block;curved=0;rounded=0;entryX=0;entryY=0;entryDx=0;entryDy=5;align=center;startFill=1;anchorPointDirection=1;" parent="1" source="jkmXBFvczhSIajxpXbJP-22" target="jkmXBFvczhSIajxpXbJP-31" edge="1">
          <mxGeometry relative="1" as="geometry">
            <mxPoint x="600" y="555" as="sourcePoint" />
          </mxGeometry>
        </mxCell>
        <mxCell id="jkmXBFvczhSIajxpXbJP-58" value="&lt;div style=&quot;text-align: left;&quot;&gt;{ virtual_lab: &amp;lt;slug&amp;gt;,&amp;nbsp;&lt;/div&gt;&lt;div style=&quot;text-align: left;&quot;&gt;&amp;nbsp; naavrewf2: {…} }&lt;/div&gt;" style="edgeLabel;html=1;align=center;verticalAlign=top;resizable=0;points=[];rotation=0;labelBackgroundColor=#FFF2CC;fontFamily=Lucida Console;" parent="jkmXBFvczhSIajxpXbJP-32" vertex="1" connectable="0">
          <mxGeometry relative="1" as="geometry">
            <mxPoint as="offset" />
          </mxGeometry>
        </mxCell>
        <mxCell id="jkmXBFvczhSIajxpXbJP-33" value="return" style="html=1;verticalAlign=bottom;endArrow=open;dashed=1;endSize=8;curved=0;rounded=0;exitX=0;exitY=1;exitDx=0;exitDy=-5;" parent="1" source="jkmXBFvczhSIajxpXbJP-31" target="jkmXBFvczhSIajxpXbJP-22" edge="1">
          <mxGeometry relative="1" as="geometry">
            <mxPoint x="600" y="625" as="targetPoint" />
          </mxGeometry>
        </mxCell>
        <mxCell id="jkmXBFvczhSIajxpXbJP-62" value="{run_url: &amp;lt;url&amp;gt;, status: &amp;lt;status&amp;gt;}" style="edgeLabel;html=1;align=center;verticalAlign=top;resizable=0;points=[];rotation=0;labelBackgroundColor=#FFF2CC;fontFamily=Lucida Console;" parent="jkmXBFvczhSIajxpXbJP-33" vertex="1" connectable="0">
          <mxGeometry relative="1" as="geometry">
            <mxPoint as="offset" />
          </mxGeometry>
        </mxCell>
        <mxCell id="jkmXBFvczhSIajxpXbJP-37" value="create wf with user credential jwt&lt;div&gt;from header or token&lt;/div&gt;" style="html=1;verticalAlign=bottom;endArrow=block;curved=0;rounded=0;entryX=0;entryY=0;entryDx=0;entryDy=5;" parent="1" source="jkmXBFvczhSIajxpXbJP-31" target="jkmXBFvczhSIajxpXbJP-36" edge="1">
          <mxGeometry relative="1" as="geometry">
            <mxPoint x="770" y="645" as="sourcePoint" />
          </mxGeometry>
        </mxCell>
        <mxCell id="jkmXBFvczhSIajxpXbJP-56" value="&amp;lt;argoyaml&amp;gt;" style="edgeLabel;align=center;verticalAlign=top;resizable=0;points=[];rotation=0;labelBorderColor=none;textShadow=0;html=1;labelBackgroundColor=#FFF2CC;fontFamily=Lucida Console;" parent="jkmXBFvczhSIajxpXbJP-37" vertex="1" connectable="0">
          <mxGeometry relative="1" as="geometry">
            <mxPoint as="offset" />
          </mxGeometry>
        </mxCell>
        <mxCell id="jkmXBFvczhSIajxpXbJP-38" value="return" style="html=1;verticalAlign=bottom;endArrow=open;dashed=1;endSize=8;curved=0;rounded=0;exitX=0;exitY=1;exitDx=0;exitDy=-5;" parent="1" source="jkmXBFvczhSIajxpXbJP-36" target="jkmXBFvczhSIajxpXbJP-31" edge="1">
          <mxGeometry relative="1" as="geometry">
            <mxPoint x="770" y="715" as="targetPoint" />
          </mxGeometry>
        </mxCell>
        <mxCell id="jkmXBFvczhSIajxpXbJP-57" value="&amp;lt;wf_id&amp;gt;, &amp;lt;status&amp;gt;" style="edgeLabel;html=1;align=center;verticalAlign=top;resizable=0;points=[];rotation=0;labelBorderColor=none;labelBackgroundColor=#FFF2CC;fontFamily=Lucida Console;" parent="jkmXBFvczhSIajxpXbJP-38" vertex="1" connectable="0">
          <mxGeometry relative="1" as="geometry">
            <mxPoint as="offset" />
          </mxGeometry>
        </mxCell>
        <mxCell id="jkmXBFvczhSIajxpXbJP-53" value="POST /workflows" style="html=1;verticalAlign=bottom;endArrow=block;curved=0;rounded=0;entryX=0;entryY=0;entryDx=0;entryDy=5;" parent="1" source="jkmXBFvczhSIajxpXbJP-22" target="jkmXBFvczhSIajxpXbJP-52" edge="1">
          <mxGeometry relative="1" as="geometry">
            <mxPoint x="325" y="705" as="sourcePoint" />
          </mxGeometry>
        </mxCell>
        <mxCell id="jkmXBFvczhSIajxpXbJP-61" value="&lt;div style=&quot;text-align: left;&quot;&gt;{ virtual_lab: &amp;lt;slug&amp;gt;,&lt;/div&gt;&lt;div style=&quot;text-align: left;&quot;&gt;&amp;nbsp; title: &amp;lt;title&amp;gt;,&lt;/div&gt;&lt;div style=&quot;text-align: left;&quot;&gt;&amp;nbsp; source_url: &amp;lt;url&amp;gt;,&lt;/div&gt;&lt;div style=&quot;text-align: left;&quot;&gt;&amp;nbsp; run_url: &amp;lt;url&amp;gt;,&lt;/div&gt;&lt;div style=&quot;text-align: left;&quot;&gt;&amp;nbsp; status: &amp;lt;status&amp;gt; }&lt;/div&gt;" style="edgeLabel;html=1;align=center;verticalAlign=top;resizable=0;points=[];rotation=0;labelBackgroundColor=#FFF2CC;fontFamily=Lucida Console;" parent="jkmXBFvczhSIajxpXbJP-53" vertex="1" connectable="0">
          <mxGeometry relative="1" as="geometry">
            <mxPoint as="offset" />
          </mxGeometry>
        </mxCell>
        <mxCell id="jkmXBFvczhSIajxpXbJP-54" value="return" style="html=1;verticalAlign=bottom;endArrow=open;dashed=1;endSize=8;curved=0;rounded=0;exitX=0;exitY=1;exitDx=0;exitDy=-5;" parent="1" source="jkmXBFvczhSIajxpXbJP-52" target="jkmXBFvczhSIajxpXbJP-22" edge="1">
          <mxGeometry relative="1" as="geometry">
            <mxPoint x="325" y="775" as="targetPoint" />
          </mxGeometry>
        </mxCell>
        <mxCell id="jkmXBFvczhSIajxpXbJP-24" value="return" style="html=1;verticalAlign=bottom;endArrow=open;dashed=1;endSize=8;curved=0;rounded=0;exitX=0;exitY=1;exitDx=0;exitDy=-5;" parent="1" source="jkmXBFvczhSIajxpXbJP-22" target="jkmXBFvczhSIajxpXbJP-2" edge="1">
          <mxGeometry relative="1" as="geometry">
            <mxPoint x="39.666666666666515" y="864.9999999999991" as="targetPoint" />
          </mxGeometry>
        </mxCell>
        <mxCell id="jkmXBFvczhSIajxpXbJP-68" value="Workflow creation and execution" style="text;strokeColor=none;align=center;fillColor=none;html=1;verticalAlign=middle;whiteSpace=wrap;rounded=0;fontSize=18;" parent="1" vertex="1">
          <mxGeometry x="40" y="20" width="740" height="30" as="geometry" />
        </mxCell>
      </root>
    </mxGraphModel>
  </diagram>
</mxfile>
